<svg width="24" height="24" viewBox="0 0 24 24" fill="none" xmlns="http://www.w3.org/2000/svg">
<path fill-rule="evenodd" clip-rule="evenodd" d="M4.74999 5C4.60872 4.99988 4.46903 5.02969 4.34012 5.08747C4.2112 5.14525 4.096 5.22969 4.00208 5.33522C3.90817 5.44075 3.83768 5.56499 3.79527 5.69974C3.75285 5.83449 3.73946 5.9767 3.75599 6.117L5.28599 19.117C5.31463 19.3601 5.43142 19.5842 5.61425 19.747C5.79707 19.9097 6.03323 19.9997 6.27799 20H17.726C17.9703 19.9998 18.2061 19.9102 18.3888 19.7481C18.5716 19.586 18.6887 19.3625 18.718 19.12L19.813 10H17.235C16.9942 10 16.7615 10.0869 16.5796 10.2447C16.3978 10.4025 16.2789 10.6206 16.245 10.859L15.49 16.141C15.456 16.3794 15.3372 16.5975 15.1553 16.7553C14.9735 16.9131 14.7408 17 14.5 17H9.49999C9.2592 17 9.0265 16.9131 8.84464 16.7553C8.66277 16.5975 8.54394 16.3794 8.50999 16.141L7.50999 9.141C7.4898 8.9992 7.5003 8.85471 7.54079 8.71731C7.58128 8.57992 7.65081 8.45283 7.74468 8.34464C7.83855 8.23645 7.95457 8.14969 8.08488 8.09023C8.21519 8.03077 8.35676 8 8.49999 8H18.5L20.046 7.994L20.256 6.112C20.2717 5.97226 20.2578 5.83076 20.2152 5.69676C20.1726 5.56275 20.1021 5.43924 20.0085 5.3343C19.9149 5.22936 19.8002 5.14535 19.6719 5.08774C19.5436 5.03014 19.4046 5.00024 19.264 5H4.74899H4.74999ZM21.644 9.195C21.854 8.918 21.992 8.584 22.033 8.217L22.244 6.335C22.2911 5.91543 22.2492 5.49063 22.1209 5.08838C21.9926 4.68614 21.7808 4.3155 21.4995 4.00071C21.2181 3.68593 20.8734 3.43408 20.488 3.26163C20.1027 3.08919 19.6852 3.00003 19.263 3H4.74899C4.32545 2.99993 3.90669 3.08955 3.52027 3.26295C3.13384 3.43636 2.78852 3.68962 2.50702 4.00608C2.22551 4.32254 2.0142 4.69501 1.887 5.09901C1.7598 5.503 1.71958 5.92935 1.76899 6.35L3.29899 19.35C3.38476 20.0801 3.73561 20.7533 4.28495 21.2418C4.83428 21.7303 5.54387 22.0001 6.27899 22H17.726C18.4597 21.9998 19.1679 21.7308 19.7167 21.2438C20.2654 20.7567 20.6167 20.0855 20.704 19.357L21.799 10.238C21.8422 9.88272 21.7886 9.52236 21.644 9.195ZM14.406 10H9.65299L10.367 15H13.633L14.265 10.576C14.293 10.376 14.341 10.184 14.405 10H14.406Z" fill="black"/>
</svg>
