<svg width="24" height="24" viewBox="0 0 24 24" fill="none" xmlns="http://www.w3.org/2000/svg">
<path fill-rule="evenodd" clip-rule="evenodd" d="M12 4C10.8037 4.00058 9.62273 4.26946 8.54408 4.78685C7.46543 5.30423 6.51655 6.05693 5.76729 6.98956C5.01803 7.92218 4.48747 9.01096 4.21468 10.1758C3.94188 11.3406 3.93379 12.5517 4.19101 13.72C4.44822 14.8884 4.96419 15.9842 5.70093 16.9267C6.43766 17.8692 7.37641 18.6346 8.44805 19.1663C9.5197 19.698 10.697 19.9827 11.8932 19.9992C13.0894 20.0158 14.274 19.7639 15.36 19.262C15.6007 19.1503 15.8759 19.1389 16.125 19.2301C16.3741 19.3213 16.5768 19.5078 16.6885 19.7485C16.8002 19.9892 16.8116 20.2644 16.7204 20.5135C16.6292 20.7626 16.4427 20.9653 16.202 21.077C14.8852 21.6869 13.4512 22.0019 12 22C6.477 22 2 17.523 2 12C2 6.477 6.477 2 12 2C17.523 2 22 6.477 22 12V12.019C21.958 14.209 21.26 15.684 20.233 16.599C19.229 17.493 18.04 17.737 17.21 17.737C16.018 17.737 14.971 17.117 14.372 16.183C12.296 18.018 9.302 18.422 7.454 16.368C5.528 14.228 6.065 10.655 8.12 8.372C10.108 6.163 13.723 5.31 15.798 7.866C15.888 7.62415 16.068 7.42646 16.3004 7.31427C16.5328 7.20208 16.7996 7.18407 17.045 7.264C17.2903 7.34394 17.4953 7.51564 17.617 7.74319C17.7387 7.97075 17.7677 8.23654 17.698 8.485C17.106 10.561 16.408 12.618 15.885 14.712C15.9613 15.0054 16.1328 15.2651 16.3726 15.4506C16.6124 15.6361 16.9069 15.7368 17.21 15.737C17.69 15.737 18.358 15.591 18.903 15.106C19.423 14.643 19.965 13.752 20 11.991C19.9976 9.87083 19.1537 7.83831 17.6537 6.33996C16.1536 4.84162 14.1202 4 12 4ZM14.353 12.914C14.423 12.674 14.606 12.033 14.82 11.286C15.053 10.466 14.75 9.68 14.112 8.97C13.192 7.949 11.22 7.917 9.607 9.71C7.984 11.512 7.925 13.901 8.941 15.03C9.86 16.051 11.832 16.083 13.446 14.29C13.819 13.876 14.17 13.446 14.353 12.914Z" fill="black"/>
</svg>
